<svg width="34" height="25" viewBox="0 0 34 25" xmlns="http://www.w3.org/2000/svg"><title>volume_3bars</title><g fill="#FFF" fill-rule="evenodd"><path d="M6.848 6.306H1.72C.211 6.306 0 6.511 0 7.977v9.045c0 1.466.211 1.672 1.72 1.672h5.13l8.702 6.006c.799.592 1.448.28 1.448-.697V.997c0-.977-.65-1.29-1.449-.697L6.848 6.306zM31.627 12.4c0 3.941-1.718 7.477-4.446 9.953l1.095.846C31.178 20.485 33 16.657 33 12.4s-1.822-8.085-4.725-10.8l-1.095.848c2.728 2.475 4.447 6.011 4.447 9.952zM23.388 12.4a8.01 8.01 0 0 1-2.088 5.39l1.08.837a9.355 9.355 0 0 0 2.381-6.228 9.35 9.35 0 0 0-2.381-6.228l-1.08.837a8.02 8.02 0 0 1 2.088 5.391z"/><path d="M27.508 12.4c0 3.004-1.244 5.723-3.249 7.685l1.083.84c2.186-2.196 3.538-5.204 3.538-8.525 0-3.32-1.352-6.33-3.538-8.526l-1.083.842a10.714 10.714 0 0 1 3.25 7.684z"/></g></svg>